SplineFontDB: 3.2
FontName: Untitled1
FullName: Untitled1
FamilyName: Untitled1
Weight: Regular
Copyright: Copyright (c) 2024, Myles.Zhang27
UComments: "2024-5-15: Created with FontForge (http://fontforge.org)"
Version: 001.000
ItalicAngle: 0
UnderlinePosition: -100
UnderlineWidth: 50
Ascent: 800
Descent: 200
InvalidEm: 0
LayerCount: 2
Layer: 0 0 "Back" 1
Layer: 1 0 "Fore" 0
XUID: [1021 651 -132743259 16276]
OS2Version: 0
OS2_WeightWidthSlopeOnly: 0
OS2_UseTypoMetrics: 1
CreationTime: 1715790356
ModificationTime: 1715793328
OS2TypoAscent: 0
OS2TypoAOffset: 1
OS2TypoDescent: 0
OS2TypoDOffset: 1
OS2TypoLinegap: 0
OS2WinAscent: 0
OS2WinAOffset: 1
OS2WinDescent: 0
OS2WinDOffset: 1
HheadAscent: 0
HheadAOffset: 1
HheadDescent: 0
HheadDOffset: 1
OS2Vendor: 'PfEd'
DEI: 91125
Encoding: ISO8859-1
UnicodeInterp: none
NameList: AGL For New Fonts
DisplaySize: -48
AntiAlias: 1
FitToEm: 0
WinInfo: 0 28 12
BeginChars: 256 79

StartChar: A
Encoding: 65 65 0
Width: 440
Flags: HW
LayerCount: 2
Fore
SplineSet
-55 -90 m 1
 -55 680 l 1
 440 680 l 1
 440 -90 l 1
 -55 -90 l 1
EndSplineSet
EndChar

StartChar: hyphen
Encoding: 45 45 1
Width: 440
Flags: HW
LayerCount: 2
Fore
SplineSet
-55 185 m 1
 -55 405 l 1
 440 405 l 1
 440 185 l 1
 -55 185 l 1
EndSplineSet
EndChar

StartChar: period
Encoding: 46 46 2
Width: 440
Flags: HW
LayerCount: 2
Fore
SplineSet
55 -90 m 1
 55 75 l 1
 220 75 l 1
 220 -90 l 1
 55 -90 l 1
EndSplineSet
EndChar

StartChar: slash
Encoding: 47 47 3
Width: 440
Flags: HW
LayerCount: 2
Fore
SplineSet
-55 -200 m 1
 -55 75 l 1
 165 75 l 1
 165 -200 l 1
 -55 -200 l 1
220 515 m 1
 220 790 l 1
 440 790 l 1
 440 515 l 1
 220 515 l 1
165 -35 m 1
 165 625 l 1
 220 625 l 1
 220 -35 l 1
 165 -35 l 1
220 75 m 1
 220 515 l 1
 275 515 l 1
 275 75 l 1
 220 75 l 1
275 240 m 1
 275 515 l 1
 330 515 l 1
 330 240 l 1
 275 240 l 1
330 405 m 1
 330 515 l 1
 385 515 l 1
 385 405 l 1
 330 405 l 1
110 75 m 1
 110 515 l 1
 165 515 l 1
 165 75 l 1
 110 75 l 1
55 75 m 1
 55 350 l 1
 110 350 l 1
 110 75 l 1
 55 75 l 1
0 75 m 1
 0 185 l 1
 55 185 l 1
 55 75 l 1
 0 75 l 1
EndSplineSet
EndChar

StartChar: grave
Encoding: 96 96 4
Width: 440
Flags: HW
LayerCount: 2
Fore
SplineSet
55 460 m 1
 55 680 l 1
 275 680 l 1
 275 460 l 1
 55 460 l 1
110 405 m 1
 110 460 l 1
 275 460 l 1
 275 405 l 1
 110 405 l 1
EndSplineSet
EndChar

StartChar: quotesingle
Encoding: 39 39 5
Width: 440
Flags: HW
LayerCount: 2
Fore
SplineSet
110 460 m 1
 110 680 l 1
 330 680 l 1
 330 460 l 1
 110 460 l 1
110 405 m 1
 110 460 l 1
 275 460 l 1
 275 405 l 1
 110 405 l 1
EndSplineSet
EndChar

StartChar: quotedbl
Encoding: 34 34 6
Width: 440
Flags: HW
LayerCount: 2
Fore
SplineSet
-55 460 m 1
 -55 680 l 1
 330 680 l 1
 330 460 l 1
 -55 460 l 1
-55 405 m 1
 -55 460 l 1
 275 460 l 1
 275 405 l 1
 -55 405 l 1
EndSplineSet
EndChar

StartChar: asciitilde
Encoding: 126 126 7
Width: 440
Flags: HW
LayerCount: 2
Fore
SplineSet
55 460 m 1
 55 680 l 1
 440 680 l 1
 440 460 l 1
 55 460 l 1
110 405 m 1
 110 460 l 1
 440 460 l 1
 440 405 l 1
 110 405 l 1
EndSplineSet
EndChar

StartChar: parenleft
Encoding: 40 40 8
Width: 440
Flags: HW
LayerCount: 2
Fore
SplineSet
0 -200 m 1
 0 790 l 1
 220 790 l 1
 220 -200 l 1
 0 -200 l 1
220 570 m 1
 220 790 l 1
 330 790 l 1
 330 570 l 1
 220 570 l 1
220 -200 m 1
 220 20 l 1
 330 20 l 1
 330 -200 l 1
 220 -200 l 1
EndSplineSet
EndChar

StartChar: parenright
Encoding: 41 41 9
Width: 440
Flags: HW
LayerCount: 2
Fore
SplineSet
165 -201 m 1
 165 789 l 1
 385 789 l 1
 385 -201 l 1
 165 -201 l 1
55 570 m 1
 55 790 l 1
 165 790 l 1
 165 570 l 1
 55 570 l 1
55 -200 m 1
 55 20 l 1
 165 20 l 1
 165 -200 l 1
 55 -200 l 1
EndSplineSet
EndChar

StartChar: bracketleft
Encoding: 91 91 10
Width: 440
Flags: HW
LayerCount: 2
Fore
SplineSet
0 -200 m 1
 0 790 l 1
 220 790 l 1
 220 -200 l 1
 0 -200 l 1
220 570 m 1
 220 790 l 1
 330 790 l 1
 330 570 l 1
 220 570 l 1
220 -200 m 1
 220 20 l 1
 330 20 l 1
 330 -200 l 1
 220 -200 l 1
EndSplineSet
EndChar

StartChar: bracketright
Encoding: 93 93 11
Width: 440
Flags: HW
LayerCount: 2
Fore
SplineSet
165 -201 m 1
 165 789 l 1
 385 789 l 1
 385 -201 l 1
 165 -201 l 1
55 570 m 1
 55 790 l 1
 165 790 l 1
 165 570 l 1
 55 570 l 1
55 -200 m 1
 55 20 l 1
 165 20 l 1
 165 -200 l 1
 55 -200 l 1
EndSplineSet
EndChar

StartChar: numbersign
Encoding: 35 35 12
Width: 440
Flags: HW
LayerCount: 2
Fore
SplineSet
0 -91 m 1
 0 679 l 1
 385 679 l 1
 385 -91 l 1
 0 -91 l 1
385 20 m 1
 385 570 l 1
 440 570 l 1
 440 20 l 1
 385 20 l 1
-55 20 m 1
 -55 570 l 1
 0 570 l 1
 0 20 l 1
 -55 20 l 1
EndSplineSet
EndChar

StartChar: exclam
Encoding: 33 33 13
Width: 440
Flags: HW
LayerCount: 2
Fore
SplineSet
55 130 m 1
 55 680 l 1
 220 680 l 1
 220 130 l 1
 55 130 l 1
55 -90 m 1
 55 75 l 1
 220 75 l 1
 220 -90 l 1
 55 -90 l 1
EndSplineSet
EndChar

StartChar: question
Encoding: 63 63 14
Width: 440
Flags: HW
LayerCount: 2
Fore
SplineSet
-55 405 m 1
 -55 680 l 1
 440 680 l 1
 440 405 l 1
 -55 405 l 1
55 240 m 1
 55 405 l 1
 440 405 l 1
 440 240 l 1
 55 240 l 1
55 130 m 1
 55 240 l 1
 330 240 l 1
 330 130 l 1
 55 130 l 1
110 -90 m 1
 110 75 l 1
 275 75 l 1
 275 -90 l 1
 110 -90 l 1
EndSplineSet
EndChar

StartChar: G
Encoding: 71 71 15
Width: 440
Flags: HW
LayerCount: 2
Fore
SplineSet
-55 -34.599609375 m 1
 -55 405.400390625 l 1
 440 405.400390625 l 1
 440 -34.599609375 l 1
 -55 -34.599609375 l 1
-55 405.400390625 m 1
 -55 680.400390625 l 1
 220 680.400390625 l 1
 220 405.400390625 l 1
 -55 405.400390625 l 1
220 460.400390625 m 1
 220 680.400390625 l 1
 440 680.400390625 l 1
 440 460.400390625 l 1
 220 460.400390625 l 1
EndSplineSet
EndChar

StartChar: D
Encoding: 68 68 16
Width: 440
Flags: HW
LayerCount: 2
Fore
SplineSet
-55 -35 m 1
 -55 625 l 1
 440 625 l 1
 440 -35 l 1
 -55 -35 l 1
-55 625 m 1
 -55 680 l 1
 385 680 l 1
 385 625 l 1
 -55 625 l 1
-55 -90 m 1
 -55 -35 l 1
 385 -35 l 1
 385 -90 l 1
 -55 -90 l 1
EndSplineSet
EndChar

StartChar: I
Encoding: 73 73 17
Width: 495
Flags: HW
LayerCount: 2
Fore
SplineSet
-55 405 m 1
 -55 680 l 1
 495 680 l 1
 495 405 l 1
 -55 405 l 1
-55 -90 m 1
 -55 185 l 1
 495 185 l 1
 495 -90 l 1
 -55 -90 l 1
110 185 m 1
 110 405 l 1
 330 405 l 1
 330 185 l 1
 110 185 l 1
EndSplineSet
EndChar

StartChar: J
Encoding: 74 74 18
Width: 495
Flags: HW
LayerCount: 2
Fore
SplineSet
-55 350 m 1
 -55 680 l 1
 495 680 l 1
 495 350 l 1
 -55 350 l 1
-55 -90 m 1
 -55 294 l 1
 495 294 l 1
 495 -90 l 1
 -55 -90 l 1
220 294 m 1
 220 350 l 1
 495 350 l 1
 495 294 l 1
 220 294 l 1
EndSplineSet
EndChar

StartChar: L
Encoding: 76 76 19
Width: 440
Flags: HW
LayerCount: 2
Fore
SplineSet
-55 185 m 1
 -55 680 l 1
 220 680 l 1
 220 185 l 1
 -55 185 l 1
-55 -90 m 1
 -55 185 l 1
 440 185 l 1
 440 -90 l 1
 -55 -90 l 1
EndSplineSet
EndChar

StartChar: M
Encoding: 77 77 20
Width: 660
Flags: HW
LayerCount: 2
Fore
SplineSet
-55 -90 m 1
 -55 680 l 1
 660 680 l 1
 660 -90 l 1
 -55 -90 l 1
EndSplineSet
EndChar

StartChar: N
Encoding: 78 78 21
Width: 495
Flags: HW
LayerCount: 2
Fore
SplineSet
-55 -90 m 1
 -55 680 l 1
 495 680 l 1
 495 -90 l 1
 -55 -90 l 1
EndSplineSet
EndChar

StartChar: O
Encoding: 79 79 22
Width: 440
Flags: HW
LayerCount: 2
Fore
SplineSet
-55 350 m 1
 -55 680 l 1
 440 680 l 1
 440 350 l 1
 -55 350 l 1
-55 -90 m 1
 -55 240 l 1
 440 240 l 1
 440 -90 l 1
 -55 -90 l 1
220 240 m 1
 220 350 l 1
 440 350 l 1
 440 240 l 1
 220 240 l 1
-55 240 m 1
 -55 350 l 1
 165 350 l 1
 165 240 l 1
 -55 240 l 1
EndSplineSet
EndChar

StartChar: P
Encoding: 80 80 23
Width: 440
Flags: HW
LayerCount: 2
Fore
SplineSet
-55 185 m 1
 -55 680 l 1
 440 680 l 1
 440 185 l 1
 -55 185 l 1
-55 -90 m 1
 -55 185 l 1
 220 185 l 1
 220 -90 l 1
 -55 -90 l 1
EndSplineSet
EndChar

StartChar: T
Encoding: 84 84 24
Width: 495
Flags: HW
LayerCount: 2
Fore
SplineSet
-55 405 m 1
 -55 680 l 1
 495 680 l 1
 495 405 l 1
 -55 405 l 1
110 -90 m 1
 110 405 l 1
 330 405 l 1
 330 -90 l 1
 110 -90 l 1
EndSplineSet
EndChar

StartChar: V
Encoding: 86 86 25
Width: 440
Flags: HW
LayerCount: 2
Fore
SplineSet
-55 130 m 1
 -55 680 l 1
 440 680 l 1
 440 130 l 1
 -55 130 l 1
55 -90 m 1
 55 130 l 1
 330 130 l 1
 330 -90 l 1
 55 -90 l 1
330 -35 m 1
 330 130 l 1
 385 130 l 1
 385 -35 l 1
 330 -35 l 1
0 -35 m 1
 0 130 l 1
 55 130 l 1
 55 -35 l 1
 0 -35 l 1
EndSplineSet
EndChar

StartChar: X
Encoding: 88 88 26
Width: 440
Flags: HW
LayerCount: 2
Fore
SplineSet
-55 -90 m 1
 -55 680 l 1
 165 680 l 1
 165 -90 l 1
 -55 -90 l 1
220 -90 m 1
 220 680 l 1
 440 680 l 1
 440 -90 l 1
 220 -90 l 1
165 130 m 1
 165 460 l 1
 220 460 l 1
 220 130 l 1
 165 130 l 1
EndSplineSet
EndChar

StartChar: one
Encoding: 49 49 27
Width: 440
Flags: HW
LayerCount: 2
Fore
SplineSet
-55 405 m 1
 -55 680 l 1
 330 680 l 1
 330 405 l 1
 -55 405 l 1
-55 -90 m 1
 -55 185 l 1
 440 185 l 1
 440 -90 l 1
 -55 -90 l 1
110 185 m 1
 110 405 l 1
 330 405 l 1
 330 185 l 1
 110 185 l 1
EndSplineSet
EndChar

StartChar: four
Encoding: 52 52 28
Width: 440
Flags: HW
LayerCount: 2
Fore
SplineSet
-55 240 m 1
 -55 680 l 1
 440 680 l 1
 440 240 l 1
 -55 240 l 1
165 -90 m 1
 165 240 l 1
 440 240 l 1
 440 -90 l 1
 165 -90 l 1
EndSplineSet
EndChar

StartChar: seven
Encoding: 55 55 29
Width: 440
Flags: HW
LayerCount: 2
Fore
SplineSet
-55 350 m 1
 -55 679 l 1
 440 679 l 1
 440 350 l 1
 -55 350 l 1
110 295 m 1
 110 350 l 1
 440 350 l 1
 440 295 l 1
 110 295 l 1
0 -91 m 1
 0 184 l 1
 275 184 l 1
 275 -91 l 1
 0 -91 l 1
55 184 m 1
 55 295 l 1
 385 295 l 1
 385 184 l 1
 55 184 l 1
275 75 m 1
 275 184 l 1
 330 184 l 1
 330 75 l 1
 275 75 l 1
EndSplineSet
EndChar

StartChar: eight
Encoding: 56 56 30
Width: 440
Flags: HW
LayerCount: 2
Fore
SplineSet
0 -90 m 1
 0 680 l 1
 385 680 l 1
 385 -90 l 1
 0 -90 l 1
385 -35 m 1
 385 625 l 1
 440 625 l 1
 440 -35 l 1
 385 -35 l 1
-55 -35 m 1
 -55 625 l 1
 0 625 l 1
 0 -35 l 1
 -55 -35 l 1
EndSplineSet
EndChar

StartChar: zero
Encoding: 48 48 31
Width: 440
Flags: HW
LayerCount: 2
Fore
SplineSet
-55 -90 m 1
 -55 680 l 1
 440 680 l 1
 440 -90 l 1
 -55 -90 l 1
EndSplineSet
EndChar

StartChar: two
Encoding: 50 50 32
Width: 440
Flags: HW
LayerCount: 2
Fore
SplineSet
-55 -90 m 1
 -55 680 l 1
 440 680 l 1
 440 -90 l 1
 -55 -90 l 1
EndSplineSet
EndChar

StartChar: three
Encoding: 51 51 33
Width: 440
Flags: HW
LayerCount: 2
Fore
SplineSet
-55 -90 m 1
 -55 680 l 1
 440 680 l 1
 440 -90 l 1
 -55 -90 l 1
EndSplineSet
EndChar

StartChar: five
Encoding: 53 53 34
Width: 440
Flags: HW
LayerCount: 2
Fore
SplineSet
-55 -90 m 1
 -55 680 l 1
 440 680 l 1
 440 -90 l 1
 -55 -90 l 1
EndSplineSet
EndChar

StartChar: six
Encoding: 54 54 35
Width: 440
Flags: HW
LayerCount: 2
Fore
SplineSet
-55 -90 m 1
 -55 680 l 1
 440 680 l 1
 440 -90 l 1
 -55 -90 l 1
EndSplineSet
EndChar

StartChar: Q
Encoding: 81 81 36
Width: 440
Flags: HW
LayerCount: 2
Fore
SplineSet
-55 -90 m 1
 -55 680 l 1
 440 680 l 1
 440 -90 l 1
 -55 -90 l 1
EndSplineSet
EndChar

StartChar: R
Encoding: 82 82 37
Width: 440
Flags: HW
LayerCount: 2
Fore
SplineSet
-55 -90 m 1
 -55 680 l 1
 440 680 l 1
 440 -90 l 1
 -55 -90 l 1
EndSplineSet
EndChar

StartChar: S
Encoding: 83 83 38
Width: 440
Flags: HW
LayerCount: 2
Fore
SplineSet
-55 -90 m 1
 -55 680 l 1
 440 680 l 1
 440 -90 l 1
 -55 -90 l 1
EndSplineSet
EndChar

StartChar: W
Encoding: 87 87 39
Width: 660
Flags: HW
LayerCount: 2
Fore
SplineSet
-55 -90 m 1
 -55 680 l 1
 660 680 l 1
 660 -90 l 1
 -55 -90 l 1
EndSplineSet
EndChar

StartChar: U
Encoding: 85 85 40
Width: 440
Flags: HW
LayerCount: 2
Fore
SplineSet
-55 -90 m 1
 -55 680 l 1
 440 680 l 1
 440 -90 l 1
 -55 -90 l 1
EndSplineSet
EndChar

StartChar: Y
Encoding: 89 89 41
Width: 440
Flags: HW
LayerCount: 2
Fore
SplineSet
-55 -90 m 1
 -55 680 l 1
 440 680 l 1
 440 -90 l 1
 -55 -90 l 1
EndSplineSet
EndChar

StartChar: Z
Encoding: 90 90 42
Width: 440
Flags: HW
LayerCount: 2
Fore
SplineSet
-55 -90 m 1
 -55 680 l 1
 440 680 l 1
 440 -90 l 1
 -55 -90 l 1
EndSplineSet
EndChar

StartChar: a
Encoding: 97 97 43
Width: 440
Flags: HW
LayerCount: 2
Fore
SplineSet
-55 -90 m 1
 -55 680 l 1
 440 680 l 1
 440 -90 l 1
 -55 -90 l 1
EndSplineSet
EndChar

StartChar: d
Encoding: 100 100 44
Width: 440
Flags: HW
LayerCount: 2
Fore
SplineSet
-55 -35 m 1
 -55 625 l 1
 440 625 l 1
 440 -35 l 1
 -55 -35 l 1
-55 625 m 1
 -55 680 l 1
 385 680 l 1
 385 625 l 1
 -55 625 l 1
-55 -90 m 1
 -55 -35 l 1
 385 -35 l 1
 385 -90 l 1
 -55 -90 l 1
EndSplineSet
EndChar

StartChar: g
Encoding: 103 103 45
Width: 440
Flags: HW
LayerCount: 2
Fore
SplineSet
-55 -34.599609375 m 1
 -55 405.400390625 l 1
 440 405.400390625 l 1
 440 -34.599609375 l 1
 -55 -34.599609375 l 1
-55 405.400390625 m 1
 -55 680.400390625 l 1
 220 680.400390625 l 1
 220 405.400390625 l 1
 -55 405.400390625 l 1
220 460.400390625 m 1
 220 680.400390625 l 1
 440 680.400390625 l 1
 440 460.400390625 l 1
 220 460.400390625 l 1
EndSplineSet
EndChar

StartChar: i
Encoding: 105 105 46
Width: 495
Flags: HW
LayerCount: 2
Fore
SplineSet
-55 405 m 1
 -55 680 l 1
 495 680 l 1
 495 405 l 1
 -55 405 l 1
-55 -90 m 1
 -55 185 l 1
 495 185 l 1
 495 -90 l 1
 -55 -90 l 1
110 185 m 1
 110 405 l 1
 330 405 l 1
 330 185 l 1
 110 185 l 1
EndSplineSet
EndChar

StartChar: j
Encoding: 106 106 47
Width: 495
Flags: HW
LayerCount: 2
Fore
SplineSet
-55 350 m 1
 -55 680 l 1
 495 680 l 1
 495 350 l 1
 -55 350 l 1
-55 -90 m 1
 -55 294 l 1
 495 294 l 1
 495 -90 l 1
 -55 -90 l 1
220 294 m 1
 220 350 l 1
 495 350 l 1
 495 294 l 1
 220 294 l 1
EndSplineSet
EndChar

StartChar: l
Encoding: 108 108 48
Width: 440
Flags: HW
LayerCount: 2
Fore
SplineSet
-55 185 m 1
 -55 680 l 1
 220 680 l 1
 220 185 l 1
 -55 185 l 1
-55 -90 m 1
 -55 185 l 1
 440 185 l 1
 440 -90 l 1
 -55 -90 l 1
EndSplineSet
EndChar

StartChar: n
Encoding: 110 110 49
Width: 495
Flags: HW
LayerCount: 2
Fore
SplineSet
-55 -90 m 1
 -55 680 l 1
 495 680 l 1
 495 -90 l 1
 -55 -90 l 1
EndSplineSet
EndChar

StartChar: m
Encoding: 109 109 50
Width: 660
Flags: HW
LayerCount: 2
Fore
SplineSet
-55 -90 m 1
 -55 680 l 1
 660 680 l 1
 660 -90 l 1
 -55 -90 l 1
EndSplineSet
EndChar

StartChar: o
Encoding: 111 111 51
Width: 440
Flags: HW
LayerCount: 2
Fore
SplineSet
-55 350 m 1
 -55 680 l 1
 440 680 l 1
 440 350 l 1
 -55 350 l 1
-55 -90 m 1
 -55 240 l 1
 440 240 l 1
 440 -90 l 1
 -55 -90 l 1
220 240 m 1
 220 350 l 1
 440 350 l 1
 440 240 l 1
 220 240 l 1
-55 240 m 1
 -55 350 l 1
 165 350 l 1
 165 240 l 1
 -55 240 l 1
EndSplineSet
EndChar

StartChar: p
Encoding: 112 112 52
Width: 440
Flags: HW
LayerCount: 2
Fore
SplineSet
-55 185 m 1
 -55 680 l 1
 440 680 l 1
 440 185 l 1
 -55 185 l 1
-55 -90 m 1
 -55 185 l 1
 220 185 l 1
 220 -90 l 1
 -55 -90 l 1
EndSplineSet
EndChar

StartChar: t
Encoding: 116 116 53
Width: 495
Flags: HW
LayerCount: 2
Fore
SplineSet
-55 405 m 1
 -55 680 l 1
 495 680 l 1
 495 405 l 1
 -55 405 l 1
110 -90 m 1
 110 405 l 1
 330 405 l 1
 330 -90 l 1
 110 -90 l 1
EndSplineSet
EndChar

StartChar: v
Encoding: 118 118 54
Width: 440
Flags: HW
LayerCount: 2
Fore
SplineSet
-55 130 m 1
 -55 680 l 1
 440 680 l 1
 440 130 l 1
 -55 130 l 1
55 -90 m 1
 55 130 l 1
 330 130 l 1
 330 -90 l 1
 55 -90 l 1
330 -35 m 1
 330 130 l 1
 385 130 l 1
 385 -35 l 1
 330 -35 l 1
0 -35 m 1
 0 130 l 1
 55 130 l 1
 55 -35 l 1
 0 -35 l 1
EndSplineSet
EndChar

StartChar: w
Encoding: 119 119 55
Width: 660
Flags: HW
LayerCount: 2
Fore
SplineSet
-55 -90 m 1
 -55 680 l 1
 660 680 l 1
 660 -90 l 1
 -55 -90 l 1
EndSplineSet
EndChar

StartChar: x
Encoding: 120 120 56
Width: 440
Flags: HW
LayerCount: 2
Fore
SplineSet
-55 -90 m 1
 -55 680 l 1
 165 680 l 1
 165 -90 l 1
 -55 -90 l 1
220 -90 m 1
 220 680 l 1
 440 680 l 1
 440 -90 l 1
 220 -90 l 1
165 130 m 1
 165 460 l 1
 220 460 l 1
 220 130 l 1
 165 130 l 1
EndSplineSet
EndChar

StartChar: b
Encoding: 98 98 57
Width: 440
Flags: HW
LayerCount: 2
Fore
SplineSet
-55 -90 m 1
 -55 680 l 1
 440 680 l 1
 440 -90 l 1
 -55 -90 l 1
EndSplineSet
EndChar

StartChar: B
Encoding: 66 66 58
Width: 440
Flags: HW
LayerCount: 2
Fore
SplineSet
-55 -90 m 1
 -55 680 l 1
 440 680 l 1
 440 -90 l 1
 -55 -90 l 1
EndSplineSet
EndChar

StartChar: C
Encoding: 67 67 59
Width: 440
Flags: HW
LayerCount: 2
Fore
SplineSet
-55 -90 m 1
 -55 680 l 1
 440 680 l 1
 440 -90 l 1
 -55 -90 l 1
EndSplineSet
EndChar

StartChar: E
Encoding: 69 69 60
Width: 440
Flags: HW
LayerCount: 2
Fore
SplineSet
-55 -90 m 1
 -55 680 l 1
 440 680 l 1
 440 -90 l 1
 -55 -90 l 1
EndSplineSet
EndChar

StartChar: F
Encoding: 70 70 61
Width: 440
Flags: HW
LayerCount: 2
Fore
SplineSet
-55 -90 m 1
 -55 680 l 1
 440 680 l 1
 440 -90 l 1
 -55 -90 l 1
EndSplineSet
EndChar

StartChar: H
Encoding: 72 72 62
Width: 440
Flags: HW
LayerCount: 2
Fore
SplineSet
-55 -90 m 1
 -55 680 l 1
 440 680 l 1
 440 -90 l 1
 -55 -90 l 1
EndSplineSet
EndChar

StartChar: K
Encoding: 75 75 63
Width: 440
Flags: HW
LayerCount: 2
Fore
SplineSet
-55 -90 m 1
 -55 680 l 1
 440 680 l 1
 440 -90 l 1
 -55 -90 l 1
EndSplineSet
EndChar

StartChar: c
Encoding: 99 99 64
Width: 440
Flags: HW
LayerCount: 2
Fore
SplineSet
-55 -90 m 1
 -55 680 l 1
 440 680 l 1
 440 -90 l 1
 -55 -90 l 1
EndSplineSet
EndChar

StartChar: e
Encoding: 101 101 65
Width: 440
Flags: HW
LayerCount: 2
Fore
SplineSet
-55 -90 m 1
 -55 680 l 1
 440 680 l 1
 440 -90 l 1
 -55 -90 l 1
EndSplineSet
EndChar

StartChar: f
Encoding: 102 102 66
Width: 440
Flags: HW
LayerCount: 2
Fore
SplineSet
-55 -90 m 1
 -55 680 l 1
 440 680 l 1
 440 -90 l 1
 -55 -90 l 1
EndSplineSet
EndChar

StartChar: h
Encoding: 104 104 67
Width: 440
Flags: HW
LayerCount: 2
Fore
SplineSet
-55 -90 m 1
 -55 680 l 1
 440 680 l 1
 440 -90 l 1
 -55 -90 l 1
EndSplineSet
EndChar

StartChar: k
Encoding: 107 107 68
Width: 440
Flags: HW
LayerCount: 2
Fore
SplineSet
-55 -90 m 1
 -55 680 l 1
 440 680 l 1
 440 -90 l 1
 -55 -90 l 1
EndSplineSet
EndChar

StartChar: q
Encoding: 113 113 69
Width: 440
Flags: HW
LayerCount: 2
Fore
SplineSet
-55 -90 m 1
 -55 680 l 1
 440 680 l 1
 440 -90 l 1
 -55 -90 l 1
EndSplineSet
EndChar

StartChar: r
Encoding: 114 114 70
Width: 440
Flags: HW
LayerCount: 2
Fore
SplineSet
-55 -90 m 1
 -55 680 l 1
 440 680 l 1
 440 -90 l 1
 -55 -90 l 1
EndSplineSet
EndChar

StartChar: s
Encoding: 115 115 71
Width: 440
Flags: HW
LayerCount: 2
Fore
SplineSet
-55 -90 m 1
 -55 680 l 1
 440 680 l 1
 440 -90 l 1
 -55 -90 l 1
EndSplineSet
EndChar

StartChar: u
Encoding: 117 117 72
Width: 440
Flags: HW
LayerCount: 2
Fore
SplineSet
-55 -90 m 1
 -55 680 l 1
 440 680 l 1
 440 -90 l 1
 -55 -90 l 1
EndSplineSet
EndChar

StartChar: y
Encoding: 121 121 73
Width: 440
Flags: HW
LayerCount: 2
Fore
SplineSet
-55 -90 m 1
 -55 680 l 1
 440 680 l 1
 440 -90 l 1
 -55 -90 l 1
EndSplineSet
EndChar

StartChar: z
Encoding: 122 122 74
Width: 440
Flags: HW
LayerCount: 2
Fore
SplineSet
-55 -90 m 1
 -55 680 l 1
 440 680 l 1
 440 -90 l 1
 -55 -90 l 1
EndSplineSet
EndChar

StartChar: equal
Encoding: 61 61 75
Width: 440
Flags: HW
LayerCount: 2
Fore
SplineSet
-55 295 m 1
 -55 515 l 1
 440 515 l 1
 440 295 l 1
 -55 295 l 1
-55 20 m 1
 -55 240 l 1
 440 240 l 1
 440 20 l 1
 -55 20 l 1
EndSplineSet
EndChar

StartChar: colon
Encoding: 58 58 76
Width: 440
Flags: HW
LayerCount: 2
Fore
SplineSet
55 350 m 1
 55 515 l 1
 220 515 l 1
 220 350 l 1
 55 350 l 1
55 75 m 1
 55 240 l 1
 220 240 l 1
 220 75 l 1
 55 75 l 1
EndSplineSet
EndChar

StartChar: nine
Encoding: 57 57 77
Width: 440
Flags: HW
LayerCount: 2
Fore
SplineSet
-55 -90 m 1
 -55 680 l 1
 440 680 l 1
 440 -90 l 1
 -55 -90 l 1
EndSplineSet
EndChar

